# xmcd
#
# Track frame offsets:
#  150
#  16561
#  30301
#  47318
#  65021
#  78458
#  95047
#  111493
#  129875
#  146450
#  161743
#
# Disc length: 2421 seconds
#
# Revision: 0
# Processed by: cddbd v1.5.2PL0 Copyright (c) Steve Scherf et al.
# Submitted via: AltoMP3_Maker 3.0
#
DISCID=8409730b
DTITLE=The Band Perry - The Band Perry
DYEAR=1900
DGENRE=
TTITLE0=You Lie
TTITLE1=Hip to My Heart
TTITLE2=If I Die Young
TTITLE3=All Your Life
TTITLE4=Miss You Being Gone
TTITLE5=Double Heart
TTITLE6=Postcard from Paris
TTITLE7=Walk Me Down the Middle
TTITLE8=Independence
TTITLE9=Quittin' You
TTITLE10=Lasso
EXTD=
EXTT0=
EXTT1=
EXTT2=
EXTT3=
EXTT4=
EXTT5=
EXTT6=
EXTT7=
EXTT8=
EXTT9=
EXTT10=
PLAYORDER=
